<?xml version="1.0" standalone="no"?>
<!DOCTYPE svg PUBLIC "-//W3C//DTD SVG 20010904//EN"
 "http://www.w3.org/TR/2001/REC-SVG-20010904/DTD/svg10.dtd">
<svg version="1.0" xmlns="http://www.w3.org/2000/svg"
 width="1024.000000pt" height="1024.000000pt" viewBox="0 0 1024.000000 1024.000000"
 preserveAspectRatio="xMidYMid meet">

<g transform="translate(0.000000,1024.000000) scale(0.100000,-0.100000)"
fill="#000000" stroke="none">
<path d="M4915 8945 c-199 -37 -380 -138 -531 -297 -319 -336 -374 -818 -138
-1208 57 -96 184 -235 254 -280 l50 -32 0 -69 0 -69 -106 0 -105 0 -132 -84
c-73 -46 -252 -158 -398 -249 -489 -303 -705 -446 -717 -473 -17 -35 -14 -65
6 -90 31 -39 55 -44 226 -44 l166 0 0 -1698 c0 -1605 1 -1700 18 -1714 20 -19
154 -38 512 -73 243 -24 286 -25 914 -25 l660 0 -26 27 c-39 42 -68 107 -68
153 0 51 42 100 86 100 20 0 25 3 17 11 -8 8 -17 8 -31 0 -14 -8 -187 -11
-551 -11 l-530 0 -3 298 c-4 407 -4 1867 0 2250 l3 312 284 0 285 0 0 -625 0
-625 60 0 60 0 0 625 0 625 280 0 280 0 3 -867 c1 -478 0 -1078 -2 -1334 l-4
-466 45 -5 c36 -4 108 -32 169 -65 4 -2 9 18 13 44 4 26 22 77 41 113 l35 64
0 932 c0 880 1 933 18 938 17 5 340 81 395 93 27 5 27 5 27 -51 0 -31 -2 -56
-4 -56 -2 0 -21 6 -42 13 -22 8 -52 17 -68 21 l-29 7 5 -78 c7 -100 37 -179
94 -241 l44 -50 0 -281 0 -280 28 5 c16 3 42 -3 65 -15 l39 -20 26 30 c16 17
43 34 62 38 l35 7 -3 229 c-3 260 -7 255 70 116 45 -83 107 -242 139 -359 29
-104 35 -345 11 -442 l-16 -65 -8 60 c-4 32 -12 73 -17 90 -5 16 -12 42 -15
58 -9 38 -26 34 -26 -6 0 -23 -8 -41 -25 -57 -22 -21 -23 -25 -10 -50 8 -15
24 -76 36 -135 21 -104 21 -110 5 -169 -14 -48 -131 -343 -140 -353 -1 -2 -1
153 1 345 3 310 1 344 -12 316 -19 -41 -61 -74 -95 -74 -31 0 -66 33 -75 73
-7 25 -10 27 -39 21 -17 -3 -32 -7 -33 -8 -1 0 -2 -145 -4 -321 -2 -249 0
-329 11 -360 7 -22 14 -77 14 -122 1 -46 3 -83 6 -84 3 0 31 -2 63 -4 33 -2
92 -15 132 -30 l73 -26 50 25 c44 22 154 101 299 215 46 36 58 41 105 41 29 0
70 5 92 9 31 8 44 6 70 -10 47 -29 155 -26 223 6 64 29 141 99 184 167 41 63
32 74 -75 89 -176 24 -312 -25 -366 -132 -23 -44 -24 -44 -70 -54 -32 -6 -19
8 135 160 l170 166 53 4 c143 9 271 138 329 329 9 28 16 91 17 141 l1 90 -33
-3 c-46 -3 -152 -53 -228 -107 -107 -76 -189 -213 -196 -325 l-3 -52 -170
-167 c-93 -92 -224 -210 -290 -262 -124 -99 -330 -246 -323 -232 2 4 21 42 42
83 55 105 150 349 192 490 36 122 57 232 69 350 10 98 11 100 56 100 138 0
236 156 227 365 -3 79 -3 80 -28 77 -102 -11 -266 -173 -271 -267 0 -11 -13
27 -27 85 -24 94 -26 110 -15 155 6 28 14 74 18 103 6 47 10 54 38 66 101 43
134 181 82 343 -26 84 -69 157 -88 150 -7 -2 -35 -38 -64 -80 -107 -158 -121
-312 -35 -403 18 -19 19 -27 10 -68 -5 -25 -13 -46 -16 -46 -4 1 -23 35 -42
77 -19 42 -65 123 -102 180 l-68 104 0 588 c0 324 3 609 6 635 l7 46 164 0
c206 0 233 11 233 89 0 44 -29 71 -177 165 -425 270 -652 414 -856 543 l-228
143 -100 0 -99 0 0 73 0 73 73 53 c189 140 318 358 357 604 20 120 8 320 -24
432 -66 223 -184 396 -359 527 -143 106 -261 160 -419 192 -93 19 -293 20
-393 1z m382 -180 c217 -50 451 -232 556 -432 68 -130 88 -217 90 -383 1 -154
-11 -214 -73 -345 -38 -80 -149 -223 -191 -245 -24 -14 -21 -16 -47 36 -26 52
-90 107 -141 122 -21 7 -80 12 -132 12 l-94 0 37 30 c57 47 92 129 91 209 -2
115 -50 193 -149 242 -59 29 -70 31 -142 27 -136 -8 -223 -74 -258 -196 -27
-93 -1 -190 71 -271 l37 -41 -93 0 c-78 0 -103 -4 -145 -24 -54 -25 -107 -81
-126 -133 -7 -18 -16 -33 -20 -33 -5 0 -37 29 -72 63 -139 139 -216 337 -216
553 0 227 84 421 255 590 75 74 109 100 191 141 54 28 122 59 150 68 112 36
290 40 421 10z m1181 -3257 l-3 -252 -195 -48 c-107 -26 -205 -47 -217 -48
l-23 0 0 254 0 254 73 16 c39 9 131 29 202 45 72 16 138 29 148 30 16 1 17
-15 15 -251z m-2503 207 c110 -19 203 -35 207 -35 5 0 8 -116 8 -258 l0 -258
-182 37 c-101 20 -200 39 -220 43 l-38 7 0 249 c0 193 3 250 13 250 6 0 102
-16 212 -35z m-64 -620 c79 -14 174 -33 212 -41 l67 -16 0 -1104 0 -1104 -22
0 c-13 0 -77 9 -143 19 -66 11 -147 22 -180 26 -33 3 -68 8 -77 11 -17 5 -18
67 -18 1125 0 616 4 1118 8 1115 5 -3 73 -17 153 -31z"/>
<path d="M6195 2788 c-2 -7 -6 -51 -7 -98 -3 -83 -4 -85 -29 -88 -21 -3 -28 4
-47 45 -12 26 -23 59 -24 73 -3 26 -24 36 -47 21 -11 -7 -9 -15 12 -42 37 -51
69 -119 63 -136 -8 -19 -49 -10 -89 18 -30 22 -57 19 -57 -5 0 -19 18 -30 52
-32 86 -5 103 -37 33 -61 -72 -24 -69 -22 -55 -38 11 -13 18 -12 54 9 41 24
42 24 64 5 22 -18 23 -22 13 -71 -7 -32 -8 -55 -2 -61 17 -17 28 1 34 54 7 57
10 64 27 54 14 -9 60 -100 60 -120 0 -21 28 -31 43 -16 9 10 8 15 -4 24 -25
19 -72 118 -61 129 10 10 65 -13 77 -32 11 -17 45 -11 45 8 0 11 -16 24 -45
35 -62 26 -60 47 6 47 54 0 93 15 83 31 -3 6 -32 7 -75 3 -38 -4 -69 -3 -69 2
0 4 23 29 50 54 36 33 49 52 44 63 -9 25 -20 21 -44 -18 -25 -40 -54 -59 -77
-51 -13 6 -15 18 -8 79 11 112 11 120 -2 124 -7 3 -15 -1 -18 -9z"/>
<path d="M6833 2715 c-1 -20 -9 -45 -17 -54 -9 -10 -16 -22 -16 -28 0 -5 25
-37 55 -70 42 -47 55 -69 55 -92 0 -69 59 -144 145 -183 44 -20 64 -23 171
-21 125 1 164 11 164 40 0 28 -59 110 -121 167 -78 72 -149 100 -241 93 l-67
-4 -57 46 c-59 47 -83 80 -49 67 29 -11 185 -36 225 -36 41 0 100 18 100 30 0
4 -10 18 -23 32 -21 23 -33 25 -133 31 -60 4 -127 9 -149 13 l-40 6 -2 -37z"/>
<path d="M3415 2556 c-49 -22 -68 -51 -73 -110 -4 -50 -2 -56 31 -92 l35 -39
305 -3 305 -3 12 -45 c32 -112 127 -205 230 -224 35 -7 176 -9 395 -5 187 3
471 2 630 -2 l290 -8 -57 -45 c-89 -71 -330 -218 -483 -295 -137 -70 -297
-133 -442 -175 -76 -22 -100 -43 -88 -80 4 -11 17 -23 29 -26 29 -7 162 26
296 73 162 57 528 250 554 291 4 7 40 -4 94 -27 88 -38 174 -64 248 -76 40 -6
41 -6 41 22 -1 15 1 34 4 42 3 10 -13 18 -56 27 -67 16 -180 52 -208 66 -15 8
-10 15 40 52 32 23 85 61 119 83 48 33 63 49 72 81 16 54 17 52 -32 52 -80 0
-123 73 -96 163 16 56 53 127 84 164 l26 30 -55 37 -54 36 -698 1 c-384 1
-756 5 -828 10 -71 4 -204 13 -295 19 -328 20 -343 21 -375 6z"/>
<path d="M6060 2395 c-30 -31 -32 -37 -20 -49 13 -12 19 -7 47 35 37 57 22 65
-27 14z"/>
<path d="M6069 2029 l-46 -39 8 -49 c16 -100 78 -187 166 -231 97 -48 304 -52
311 -5 1 11 -17 52 -40 90 -43 69 -44 70 -94 76 -98 12 -198 79 -241 163 l-18
34 -46 -39z"/>
</g>
</svg>
